<?xml version="1.0" encoding="utf-8"?>
<!-- Generator: Adobe Illustrator 22.0.1, SVG Export Plug-In . SVG Version: 6.00 Build 0)  -->
<svg version="1.1" id="Capa_1" xmlns="http://www.w3.org/2000/svg" xmlns:xlink="http://www.w3.org/1999/xlink" x="0px" y="0px"
	 viewBox="0 0 512 512" style="enable-background:new 0 0 512 512;" xml:space="preserve">
<style type="text/css">
	.st0{fill:#FF0000;}
</style>
<path class="st0" d="M343.2,0C-37.5-1.4,17.9,167.7,17.9,167.7S-25.7,10.5,341.8,10.5c119.9,3.8,129.7,41.1,130.6,54.9H257.8
	c0,0-34.4,1.6-57.2,5C125.5,81.2,74.6,144.6,74,227.7c-1.1,145.5,109.2,202.4,160.8,203.4c19.6,45.2,57.9,101.8,93.8,73.1
	c40.4-32.3-45-78.3-45-78.3s89,19.1,89-22c0-41.2-96.1-38.6-135.3-6c-58.4,1-63.9-72.3-63.2-95.4c0.6-21.1,10.9-68,83.7-68
	c6.1,0,25.8,0,30.4,0c208.7,0,208.7-169.1,208.7-169.1C496.9,29.3,428.1,0.3,343.2,0z"/>
</svg>
