<?xml version="1.0" encoding="utf-8"?>
<!-- Generator: Adobe Illustrator 22.0.1, SVG Export Plug-In . SVG Version: 6.00 Build 0)  -->
<svg version="1.1" id="Capa_1" xmlns="http://www.w3.org/2000/svg" xmlns:xlink="http://www.w3.org/1999/xlink" x="0px" y="0px"
	 viewBox="0 0 512 512" style="enable-background:new 0 0 512 512;" xml:space="preserve">
<style type="text/css">
	.st0{fill:#FF0808;}
</style>
<g>
	<path class="st0" d="M352.3,290.5c0,18-7.7,35.8-20.1,48.2l47.1,77.2c46.2-26.6,80.3-72.1,92.1-125.4L352.3,290.5L352.3,290.5z"/>
	<path class="st0" d="M309.4,226.8c16.5,6.8,29.8,19.9,37,36.2h128.9c0.3-5.2,0.7-9.2,0.7-13.9c0-79.5-48.4-147.8-117.3-177.2
		L309.4,226.8z"/>
	<path class="st0" d="M309.2,353.7c-7.4,3-15.4,4.9-23.9,5.2l-65.2-13c-10.3-2.1-20.9,1.9-27.2,10.3c-6.4,8.3-7.4,19.6-2.7,29
		l7.6,15.2l-7.6,15.2c-4.7,9.4-3.6,20.6,2.7,29c5.3,6.9,13.4,10.8,21.9,10.8c1.8,0,3.6-0.2,5.4-0.5l67-13.4
		c23.7-0.4,46.3-5.4,67.3-13.7L309.2,353.7z"/>
	<path class="st0" d="M332.6,63.3c-15.7-4.2-32.1-6.6-49.1-6.6h-220C48.3,56.7,36,69,36,84.2c0,75.8,61.7,137.5,137.5,137.5h108.7
		L332.6,63.3z M104.7,125.3c-7.6,0-13.8-6.2-13.8-13.8c0-7.6,6.2-13.8,13.8-13.8c7.6,0,13.8,6.2,13.8,13.8
		C118.5,119.1,112.3,125.3,104.7,125.3z"/>
</g>
</svg>
